Oxanium-Bold.ufo
<glyph name="exclam" format="2">
  <advance width="278"/>
  <unicode hex="0021"/>
  <outline>
    <contour>
      <point x="64" y="0" type="line"/>
      <point x="64" y="144" type="line"/>
      <point x="214" y="144" type="line"/>
      <point x="214" y="0" type="line"/>
    </contour>
    <contour>
      <point x="67" y="222" type="line"/>
      <point x="67" y="690" type="line"/>
      <point x="211" y="690" type="line"/>
      <point x="211" y="222" type="line"/>
    </contour>
  </outline>
</glyph>
<glyph name="dollar" format="2">
  <advance width="578"/>
  <unicode hex="0024"/>
  <outline>
    <contour>
      <point x="57" y="52" type="line"/>
      <point x="57" y="130" type="line"/>
      <point x="347" y="130" type="line" smooth="yes"/>
      <point x="377" y="130"/>
      <point x="377" y="160" type="qcurve" smooth="yes"/>
      <point x="377" y="218" type="line" smooth="yes"/>
      <point x="377" y="246"/>
      <point x="352" y="251" type="qcurve" smooth="yes"/>
      <point x="177" y="286" type="line" smooth="yes"/>
      <point x="57" y="310"/>
      <point x="57" y="447" type="qcurve" smooth="yes"/>
      <point x="57" y="492" type="line" smooth="yes"/>
      <point x="57" y="660"/>
      <point x="225" y="660" type="qcurve" smooth="yes"/>
      <point x="229" y="660" type="line"/>
      <point x="229" y="780" type="line"/>
      <point x="349" y="780" type="line"/>
      <point x="349" y="660" type="line"/>
      <point x="434" y="660" type="line"/>
      <point x="501" y="608" type="line"/>
      <point x="501" y="530" type="line"/>
      <point x="231" y="530" type="line" smooth="yes"/>
      <point x="201" y="530"/>
      <point x="201" y="500" type="qcurve" smooth="yes"/>
      <point x="201" y="446" type="line" smooth="yes"/>
      <point x="201" y="418"/>
      <point x="226" y="413" type="qcurve" smooth="yes"/>
      <point x="401" y="378" type="line" smooth="yes"/>
      <point x="521" y="354"/>
      <point x="521" y="217" type="qcurve" smooth="yes"/>
      <point x="521" y="168" type="line" smooth="yes"/>
      <point x="521" y="0"/>
      <point x="353" y="0" type="qcurve" smooth="yes"/>
      <point x="349" y="0" type="line"/>
      <point x="349" y="-120" type="line"/>
      <point x="229" y="-120" type="line"/>
      <point x="229" y="0" type="line"/>
      <point x="124" y="0" type="line"/>
    </contour>
  </outline>
</glyph>
<glyph name="ampersand" format="2">
  <advance width="676"/>
  <unicode hex="0026"/>
  <outline>
    <contour>
      <point x="62" y="162" type="qcurve" smooth="yes"/>
      <point x="62" y="248" type="line" smooth="yes"/>
      <point x="62" y="300"/>
      <point x="95" y="328" type="qcurve" smooth="yes"/>
      <point x="137" y="363" type="line"/>
      <point x="102" y="405" type="line" smooth="yes"/>
      <point x="82" y="429"/>
      <point x="82" y="463" type="qcurve" smooth="yes"/>
      <point x="82" y="528" type="line" smooth="yes"/>
      <point x="82" y="690"/>
      <point x="244" y="690" type="qcurve" smooth="yes"/>
      <point x="426" y="690" type="line"/>
      <point x="486" y="645" type="line"/>
      <point x="486" y="570" type="line"/>
      <point x="252" y="570" type="line" smooth="yes"/>
      <point x="220" y="570"/>
      <point x="220" y="538" type="qcurve" smooth="yes"/>
      <point x="220" y="452" type="line" smooth="yes"/>
      <point x="220" y="420"/>
      <point x="252" y="420" type="qcurve" smooth="yes"/>
      <point x="636" y="420" type="line"/>
      <point x="636" y="300" type="line"/>
      <point x="536" y="300" type="line"/>
      <point x="536" y="0" type="line"/>
      <point x="224" y="0" type="line" smooth="yes"/>
      <point x="62" y="0"/>
    </contour>
    <contour>
      <point x="200" y="152" type="line" smooth="yes"/>
      <point x="200" y="120"/>
      <point x="232" y="120" type="qcurve" smooth="yes"/>
      <point x="398" y="120" type="line"/>
      <point x="398" y="300" type="line"/>
      <point x="232" y="300" type="line" smooth="yes"/>
      <point x="200" y="300"/>
      <point x="200" y="268" type="qcurve" smooth="yes"/>
    </contour>
  </outline>
</glyph>
<glyph name="quotesingle" format="2">
  <advance width="248"/>
  <unicode hex="0027"/>
  <outline>
    <contour>
      <point x="62" y="470" type="line"/>
      <point x="62" y="740" type="line"/>
      <point x="186" y="740" type="line"/>
      <point x="186" y="470" type="line"/>
    </contour>
  </outline>
</glyph>
<glyph name="asterisk" format="2">
  <advance width="514"/>
  <unicode hex="002A"/>
  <outline>
    <contour>
      <point x="41" y="495" type="line"/>
      <point x="73" y="594" type="line"/>
      <point x="203" y="555" type="line"/>
      <point x="203" y="690" type="line"/>
      <point x="311" y="690" type="line"/>
      <point x="311" y="555" type="line"/>
      <point x="441" y="594" type="line"/>
      <point x="473" y="495" type="line"/>
      <point x="345" y="451" type="line"/>
      <point x="423" y="340" type="line"/>
      <point x="339" y="279" type="line"/>
      <point x="257" y="387" type="line"/>
      <point x="175" y="279" type="line"/>
      <point x="91" y="340" type="line"/>
      <point x="169" y="451" type="line"/>
    </contour>
  </outline>
</glyph>
<glyph name="slash" format="2">
  <advance width="436"/>
  <unicode hex="002F"/>
  <outline>
    <contour>
      <point x="20" y="-16" type="line"/>
      <point x="300" y="748" type="line"/>
      <point x="416" y="706" type="line"/>
      <point x="136" y="-58" type="line"/>
    </contour>
  </outline>
</glyph>
<glyph name="three" format="2">
  <advance width="578"/>
  <unicode hex="0033"/>
  <outline>
    <contour>
      <point x="62" y="52" type="line"/>
      <point x="62" y="130" type="line"/>
      <point x="352" y="130" type="line" smooth="yes"/>
      <point x="382" y="130"/>
      <point x="382" y="160" type="qcurve" smooth="yes"/>
      <point x="382" y="260" type="line" smooth="yes"/>
      <point x="382" y="290"/>
      <point x="352" y="290" type="qcurve" smooth="yes"/>
      <point x="136" y="290" type="line"/>
      <point x="136" y="420" type="line"/>
      <point x="352" y="420" type="line" smooth="yes"/>
      <point x="382" y="420"/>
      <point x="382" y="450" type="qcurve" smooth="yes"/>
      <point x="382" y="530" type="line" smooth="yes"/>
      <point x="382" y="560"/>
      <point x="352" y="560" type="qcurve" smooth="yes"/>
      <point x="72" y="560" type="line"/>
      <point x="72" y="638" type="line"/>
      <point x="139" y="690" type="line"/>
      <point x="358" y="690" type="line" smooth="yes"/>
      <point x="526" y="690"/>
      <point x="526" y="522" type="qcurve" smooth="yes"/>
      <point x="526" y="458" type="line" smooth="yes"/>
      <point x="526" y="418"/>
      <point x="501" y="393" type="qcurve" smooth="yes"/>
      <point x="466" y="358" type="line"/>
      <point x="501" y="323" type="line" smooth="yes"/>
      <point x="526" y="298"/>
      <point x="526" y="258" type="qcurve" smooth="yes"/>
      <point x="526" y="168" type="line" smooth="yes"/>
      <point x="526" y="0"/>
      <point x="358" y="0" type="qcurve" smooth="yes"/>
      <point x="129" y="0" type="line"/>
    </contour>
  </outline>
</glyph>
<glyph name="four" format="2">
  <advance width="578"/>
  <unicode hex="0034"/>
  <outline>
    <contour>
      <point x="52" y="102" type="line"/>
      <point x="52" y="220" type="line"/>
      <point x="263" y="690" type="line"/>
      <point x="385" y="690" type="line"/>
      <point x="402" y="660" type="line"/>
      <point x="210" y="232" type="line"/>
      <point x="382" y="232" type="line"/>
      <point x="382" y="430" type="line"/>
      <point x="526" y="430" type="line"/>
      <point x="526" y="0" type="line"/>
      <point x="382" y="0" type="line"/>
      <point x="382" y="102" type="line"/>
    </contour>
  </outline>
</glyph>
<glyph name="greater" format="2">
  <advance width="578"/>
  <unicode hex="003E"/>
  <outline>
    <contour>
      <point x="54" y="179" type="line"/>
      <point x="387" y="335" type="line"/>
      <point x="54" y="491" type="line"/>
      <point x="104" y="596" type="line"/>
      <point x="514" y="400" type="line"/>
      <point x="514" y="270" type="line"/>
      <point x="104" y="74" type="line"/>
    </contour>
  </outline>
</glyph>
<glyph name="A" format="2">
  <advance width="666"/>
  <unicode hex="0041"/>
  <outline>
    <contour>
      <point x="18" y="27" type="line"/>
      <point x="223" y="690" type="line"/>
      <point x="443" y="690" type="line"/>
      <point x="648" y="27" type="line"/>
      <point x="630" y="0" type="line"/>
      <point x="510" y="0" type="line"/>
      <point x="468" y="140" type="line"/>
      <point x="198" y="140" type="line"/>
      <point x="156" y="0" type="line"/>
      <point x="36" y="0" type="line"/>
    </contour>
    <contour>
      <point x="237" y="270" type="line"/>
      <point x="429" y="270" type="line"/>
      <point x="341" y="560" type="line"/>
      <point x="325" y="560" type="line"/>
    </contour>
  </outline>
</glyph>
<glyph name="D" format="2">
  <advance width="688"/>
  <unicode hex="0044"/>
  <outline>
    <contour>
      <point x="82" y="0" type="line"/>
      <point x="82" y="690" type="line"/>
      <point x="344" y="690" type="line" smooth="yes"/>
      <point x="626" y="690"/>
      <point x="626" y="408" type="qcurve" smooth="yes"/>
      <point x="626" y="282" type="line" smooth="yes"/>
      <point x="626" y="0"/>
      <point x="344" y="0" type="qcurve" smooth="yes"/>
    </contour>
    <contour>
      <point x="226" y="130" type="line"/>
      <point x="352" y="130" type="line" smooth="yes"/>
      <point x="482" y="130"/>
      <point x="482" y="260" type="qcurve" smooth="yes"/>
      <point x="482" y="430" type="line" smooth="yes"/>
      <point x="482" y="560"/>
      <point x="352" y="560" type="qcurve" smooth="yes"/>
      <point x="226" y="560" type="line"/>
    </contour>
  </outline>
</glyph>
<glyph name="E" format="2">
  <advance width="604"/>
  <unicode hex="0045"/>
  <outline>
    <contour>
      <point x="82" y="0" type="line"/>
      <point x="82" y="690" type="line"/>
      <point x="554" y="690" type="line"/>
      <point x="554" y="560" type="line"/>
      <point x="226" y="560" type="line"/>
      <point x="226" y="420" type="line"/>
      <point x="524" y="420" type="line"/>
      <point x="524" y="290" type="line"/>
      <point x="226" y="290" type="line"/>
      <point x="226" y="130" type="line"/>
      <point x="554" y="130" type="line"/>
      <point x="554" y="0" type="line"/>
    </contour>
  </outline>
</glyph>
<glyph name="F" format="2">
  <advance width="584"/>
  <unicode hex="0046"/>
  <outline>
    <contour>
      <point x="82" y="0" type="line"/>
      <point x="82" y="690" type="line"/>
      <point x="554" y="690" type="line"/>
      <point x="554" y="560" type="line"/>
      <point x="226" y="560" type="line"/>
      <point x="226" y="390" type="line"/>
      <point x="524" y="390" type="line"/>
      <point x="524" y="260" type="line"/>
      <point x="226" y="260" type="line"/>
      <point x="226" y="0" type="line"/>
    </contour>
  </outline>
</glyph>
<glyph name="H" format="2">
  <advance width="708"/>
  <unicode hex="0048"/>
  <outline>
    <contour>
      <point x="82" y="0" type="line"/>
      <point x="82" y="690" type="line"/>
      <point x="226" y="690" type="line"/>
      <point x="226" y="420" type="line"/>
      <point x="482" y="420" type="line"/>
      <point x="482" y="690" type="line"/>
      <point x="626" y="690" type="line"/>
      <point x="626" y="0" type="line"/>
      <point x="482" y="0" type="line"/>
      <point x="482" y="290" type="line"/>
      <point x="226" y="290" type="line"/>
      <point x="226" y="0" type="line"/>
    </contour>
  </outline>
</glyph>
<glyph name="K" format="2">
  <advance width="672"/>
  <unicode hex="004B"/>
  <outline>
    <contour>
      <point x="82" y="0" type="line"/>
      <point x="82" y="690" type="line"/>
      <point x="226" y="690" type="line"/>
      <point x="226" y="417" type="line"/>
      <point x="470" y="690" type="line"/>
      <point x="605" y="690" type="line"/>
      <point x="619" y="661" type="line"/>
      <point x="390" y="406" type="line"/>
      <point x="644" y="29" type="line"/>
      <point x="630" y="0" type="line"/>
      <point x="498" y="0" type="line"/>
      <point x="297" y="302" type="line"/>
      <point x="226" y="225" type="line"/>
      <point x="226" y="0" type="line"/>
    </contour>
  </outline>
</glyph>
<glyph name="N" format="2">
  <advance width="738"/>
  <unicode hex="004E"/>
  <outline>
    <contour>
      <point x="82" y="0" type="line"/>
      <point x="82" y="690" type="line"/>
      <point x="238" y="690" type="line"/>
      <point x="512" y="237" type="line"/>
      <point x="512" y="690" type="line"/>
      <point x="656" y="690" type="line"/>
      <point x="656" y="0" type="line"/>
      <point x="500" y="0" type="line"/>
      <point x="226" y="453" type="line"/>
      <point x="226" y="0" type="line"/>
    </contour>
  </outline>
</glyph>
<glyph name="O" format="2">
  <advance width="708"/>
  <unicode hex="004F"/>
  <outline>
    <contour>
      <point x="72" y="168" type="qcurve" smooth="yes"/>
      <point x="72" y="522" type="line" smooth="yes"/>
      <point x="72" y="690"/>
      <point x="240" y="690" type="qcurve" smooth="yes"/>
      <point x="468" y="690" type="line" smooth="yes"/>
      <point x="636" y="690"/>
      <point x="636" y="522" type="qcurve" smooth="yes"/>
      <point x="636" y="168" type="line" smooth="yes"/>
      <point x="636" y="0"/>
      <point x="468" y="0" type="qcurve" smooth="yes"/>
      <point x="240" y="0" type="line" smooth="yes"/>
      <point x="72" y="0"/>
    </contour>
    <contour>
      <point x="216" y="160" type="line" smooth="yes"/>
      <point x="216" y="130"/>
      <point x="246" y="130" type="qcurve" smooth="yes"/>
      <point x="462" y="130" type="line" smooth="yes"/>
      <point x="492" y="130"/>
      <point x="492" y="160" type="qcurve" smooth="yes"/>
      <point x="492" y="530" type="line" smooth="yes"/>
      <point x="492" y="560"/>
      <point x="462" y="560" type="qcurve" smooth="yes"/>
      <point x="246" y="560" type="line" smooth="yes"/>
      <point x="216" y="560"/>
      <point x="216" y="530" type="qcurve" smooth="yes"/>
    </contour>
  </outline>
</glyph>
<glyph name="P" format="2">
  <advance width="638"/>
  <unicode hex="0050"/>
  <outline>
    <contour>
      <point x="82" y="0" type="line"/>
      <point x="82" y="690" type="line"/>
      <point x="418" y="690" type="line" smooth="yes"/>
      <point x="586" y="690"/>
      <point x="586" y="522" type="qcurve" smooth="yes"/>
      <point x="586" y="388" type="line" smooth="yes"/>
      <point x="586" y="220"/>
      <point x="418" y="220" type="qcurve" smooth="yes"/>
      <point x="226" y="220" type="line"/>
      <point x="226" y="0" type="line"/>
    </contour>
    <contour>
      <point x="226" y="350" type="line"/>
      <point x="412" y="350" type="line" smooth="yes"/>
      <point x="442" y="350"/>
      <point x="442" y="380" type="qcurve" smooth="yes"/>
      <point x="442" y="530" type="line" smooth="yes"/>
      <point x="442" y="560"/>
      <point x="412" y="560" type="qcurve" smooth="yes"/>
      <point x="226" y="560" type="line"/>
    </contour>
  </outline>
</glyph>
<glyph name="S" format="2">
  <advance width="588"/>
  <unicode hex="0053"/>
  <outline>
    <contour>
      <point x="52" y="52" type="line"/>
      <point x="52" y="130" type="line"/>
      <point x="362" y="130" type="line" smooth="yes"/>
      <point x="392" y="130"/>
      <point x="392" y="160" type="qcurve" smooth="yes"/>
      <point x="392" y="233" type="line" smooth="yes"/>
      <point x="392" y="261"/>
      <point x="367" y="266" type="qcurve" smooth="yes"/>
      <point x="172" y="305" type="line" smooth="yes"/>
      <point x="52" y="329"/>
      <point x="52" y="466" type="qcurve" smooth="yes"/>
      <point x="52" y="522" type="line" smooth="yes"/>
      <point x="52" y="690"/>
      <point x="220" y="690" type="qcurve" smooth="yes"/>
      <point x="449" y="690" type="line"/>
      <point x="516" y="638" type="line"/>
      <point x="516" y="560" type="line"/>
      <point x="226" y="560" type="line" smooth="yes"/>
      <point x="196" y="560"/>
      <point x="196" y="530" type="qcurve" smooth="yes"/>
      <point x="196" y="465" type="line" smooth="yes"/>
      <point x="196" y="437"/>
      <point x="221" y="432" type="qcurve" smooth="yes"/>
      <point x="416" y="393" type="line" smooth="yes"/>
      <point x="536" y="369"/>
      <point x="536" y="232" type="qcurve" smooth="yes"/>
      <point x="536" y="168" type="line" smooth="yes"/>
      <point x="536" y="0"/>
      <point x="368" y="0" type="qcurve" smooth="yes"/>
      <point x="119" y="0" type="line"/>
    </contour>
  </outline>
</glyph>
<glyph name="V" format="2">
  <advance width="656"/>
  <unicode hex="0056"/>
  <outline>
    <contour>
      <point x="18" y="663" type="line"/>
      <point x="36" y="690" type="line"/>
      <point x="162" y="690" type="line"/>
      <point x="320" y="130" type="line"/>
      <point x="336" y="130" type="line"/>
      <point x="494" y="690" type="line"/>
      <point x="620" y="690" type="line"/>
      <point x="638" y="663" type="line"/>
      <point x="442" y="0" type="line"/>
      <point x="214" y="0" type="line"/>
    </contour>
  </outline>
</glyph>
<glyph name="W" format="2">
  <advance width="956"/>
  <unicode hex="0057"/>
  <outline>
    <contour>
      <point x="28" y="663" type="line"/>
      <point x="48" y="690" type="line"/>
      <point x="166" y="690" type="line"/>
      <point x="277" y="130" type="line"/>
      <point x="288" y="130" type="line"/>
      <point x="408" y="624" type="line"/>
      <point x="548" y="624" type="line"/>
      <point x="668" y="130" type="line"/>
      <point x="679" y="130" type="line"/>
      <point x="790" y="690" type="line"/>
      <point x="908" y="690" type="line"/>
      <point x="928" y="663" type="line"/>
      <point x="793" y="0" type="line"/>
      <point x="564" y="0" type="line"/>
      <point x="478" y="365" type="line"/>
      <point x="392" y="0" type="line"/>
      <point x="163" y="0" type="line"/>
    </contour>
  </outline>
</glyph>
<glyph name="X" format="2">
  <advance width="646"/>
  <unicode hex="0058"/>
  <outline>
    <contour>
      <point x="28" y="29" type="line"/>
      <point x="244" y="355" type="line"/>
      <point x="41" y="661" type="line"/>
      <point x="55" y="690" type="line"/>
      <point x="181" y="690" type="line"/>
      <point x="323" y="470" type="line"/>
      <point x="465" y="690" type="line"/>
      <point x="591" y="690" type="line"/>
      <point x="605" y="661" type="line"/>
      <point x="402" y="355" type="line"/>
      <point x="618" y="29" type="line"/>
      <point x="604" y="0" type="line"/>
      <point x="478" y="0" type="line"/>
      <point x="323" y="239" type="line"/>
      <point x="168" y="0" type="line"/>
      <point x="42" y="0" type="line"/>
    </contour>
  </outline>
</glyph>
<glyph name="Z" format="2">
  <advance width="608"/>
  <unicode hex="005A"/>
  <outline>
    <contour>
      <point x="42" y="0" type="line"/>
      <point x="42" y="112" type="line"/>
      <point x="374" y="560" type="line"/>
      <point x="52" y="560" type="line"/>
      <point x="52" y="690" type="line"/>
      <point x="556" y="690" type="line"/>
      <point x="556" y="578" type="line"/>
      <point x="224" y="130" type="line"/>
      <point x="566" y="130" type="line"/>
      <point x="566" y="0" type="line"/>
    </contour>
  </outline>
</glyph>
<glyph name="bracketleft" format="2">
  <advance width="382"/>
  <unicode hex="005B"/>
  <outline>
    <contour>
      <point x="82" y="-180" type="line"/>
      <point x="82" y="760" type="line"/>
      <point x="352" y="760" type="line"/>
      <point x="352" y="640" type="line"/>
      <point x="220" y="640" type="line"/>
      <point x="220" y="-60" type="line"/>
      <point x="352" y="-60" type="line"/>
      <point x="352" y="-180" type="line"/>
    </contour>
  </outline>
</glyph>
<glyph name="backslash" format="2">
  <advance width="436"/>
  <unicode hex="005C"/>
  <outline>
    <contour>
      <point x="20" y="706" type="line"/>
      <point x="136" y="748" type="line"/>
      <point x="416" y="-16" type="line"/>
      <point x="300" y="-58" type="line"/>
    </contour>
  </outline>
</glyph>
<glyph name="asciicircum" format="2">
  <advance width="564"/>
  <unicode hex="005E"/>
  <outline>
    <contour>
      <point x="32" y="356" type="line"/>
      <point x="216" y="690" type="line"/>
      <point x="348" y="690" type="line"/>
      <point x="532" y="356" type="line"/>
      <point x="427" y="298" type="line"/>
      <point x="282" y="564" type="line"/>
      <point x="137" y="298" type="line"/>
    </contour>
  </outline>
</glyph>
<glyph name="a" format="2">
  <advance width="550"/>
  <unicode hex="0061"/>
  <outline>
    <contour>
      <point x="206" y="0" type="line" smooth="yes"/>
      <point x="44" y="0"/>
      <point x="44" y="318"/>
      <point x="206" y="318" type="qcurve" smooth="yes"/>
      <point x="344" y="318" type="line"/>
      <point x="344" y="376" type="line" smooth="yes"/>
      <point x="344" y="408"/>
      <point x="312" y="408" type="qcurve" smooth="yes"/>
      <point x="100" y="408" type="line"/>
      <point x="100" y="483" type="line"/>
      <point x="160" y="528" type="line"/>
      <point x="320" y="528" type="line" smooth="yes"/>
      <point x="482" y="528"/>
      <point x="482" y="366" type="qcurve" smooth="yes"/>
      <point x="482" y="0" type="line"/>
    </contour>
    <contour>
      <point x="182" y="152" type="line" smooth="yes"/>
      <point x="182" y="120"/>
      <point x="214" y="120" type="qcurve" smooth="yes"/>
      <point x="344" y="120" type="line"/>
      <point x="344" y="210" type="line"/>
      <point x="214" y="210" type="line" smooth="yes"/>
      <point x="182" y="210"/>
      <point x="182" y="178" type="qcurve" smooth="yes"/>
    </contour>
  </outline>
</glyph>
<glyph name="n" format="2">
  <advance width="594"/>
  <unicode hex="006E"/>
  <outline>
    <contour>
      <point x="72" y="0" type="line"/>
      <point x="72" y="528" type="line"/>
      <point x="364" y="528" type="line" smooth="yes"/>
      <point x="526" y="528"/>
      <point x="526" y="366" type="qcurve" smooth="yes"/>
      <point x="526" y="0" type="line"/>
      <point x="388" y="0" type="line"/>
      <point x="388" y="376" type="line" smooth="yes"/>
      <point x="388" y="408"/>
      <point x="356" y="408" type="qcurve" smooth="yes"/>
      <point x="210" y="408" type="line"/>
      <point x="210" y="0" type="line"/>
    </contour>
  </outline>
</glyph>
<glyph name="r" format="2">
  <advance width="404"/>
  <unicode hex="0072"/>
  <outline>
    <contour>
      <point x="68" y="0" type="line"/>
      <point x="68" y="460" type="line"/>
      <point x="105" y="528"/>
      <point x="210" y="528" type="qcurve" smooth="yes"/>
      <point x="318" y="528" type="line"/>
      <point x="378" y="483" type="line"/>
      <point x="378" y="408" type="line"/>
      <point x="243" y="408" type="line" smooth="yes"/>
      <point x="216" y="408"/>
      <point x="206" y="395" type="qcurve"/>
      <point x="206" y="0" type="line"/>
    </contour>
  </outline>
</glyph>
<glyph name="t" format="2">
  <advance width="424"/>
  <unicode hex="0074"/>
  <outline>
    <contour>
      <point x="68" y="162" type="qcurve" smooth="yes"/>
      <point x="68" y="690" type="line"/>
      <point x="206" y="690" type="line"/>
      <point x="206" y="528" type="line"/>
      <point x="378" y="528" type="line"/>
      <point x="378" y="408" type="line"/>
      <point x="206" y="408" type="line"/>
      <point x="206" y="152" type="line" smooth="yes"/>
      <point x="206" y="120"/>
      <point x="238" y="120" type="qcurve" smooth="yes"/>
      <point x="388" y="120" type="line"/>
      <point x="388" y="45" type="line"/>
      <point x="328" y="0" type="line"/>
      <point x="230" y="0" type="line" smooth="yes"/>
      <point x="68" y="0"/>
    </contour>
  </outline>
</glyph>
<glyph name="u" format="2">
  <advance width="594"/>
  <unicode hex="0075"/>
  <outline>
    <contour>
      <point x="68" y="162" type="qcurve" smooth="yes"/>
      <point x="68" y="528" type="line"/>
      <point x="206" y="528" type="line"/>
      <point x="206" y="152" type="line" smooth="yes"/>
      <point x="206" y="120"/>
      <point x="238" y="120" type="qcurve" smooth="yes"/>
      <point x="384" y="120" type="line"/>
      <point x="384" y="528" type="line"/>
      <point x="522" y="528" type="line"/>
      <point x="522" y="0" type="line"/>
      <point x="230" y="0" type="line" smooth="yes"/>
      <point x="68" y="0"/>
    </contour>
  </outline>
</glyph>
<glyph name="braceright" format="2">
  <advance width="420"/>
  <unicode hex="007D"/>
  <outline>
    <contour>
      <point x="30" y="-60" type="line"/>
      <point x="120" y="-60" type="line" smooth="yes"/>
      <point x="152" y="-60"/>
      <point x="152" y="-28" type="qcurve" smooth="yes"/>
      <point x="152" y="203" type="line"/>
      <point x="234" y="285" type="line"/>
      <point x="152" y="367" type="line"/>
      <point x="152" y="608" type="line" smooth="yes"/>
      <point x="152" y="640"/>
      <point x="120" y="640" type="qcurve" smooth="yes"/>
      <point x="30" y="640" type="line"/>
      <point x="30" y="760" type="line"/>
      <point x="128" y="760" type="line" smooth="yes"/>
      <point x="290" y="760"/>
      <point x="290" y="598" type="qcurve" smooth="yes"/>
      <point x="290" y="399" type="line"/>
      <point x="370" y="319" type="line"/>
      <point x="370" y="251" type="line"/>
      <point x="290" y="171" type="line"/>
      <point x="290" y="-18" type="line" smooth="yes"/>
      <point x="290" y="-180"/>
      <point x="128" y="-180" type="qcurve" smooth="yes"/>
      <point x="30" y="-180" type="line"/>
    </contour>
  </outline>
</glyph>
<glyph name="asciitilde" format="2">
  <advance width="578"/>
  <unicode hex="007E"/>
  <outline>
    <contour>
      <point x="32" y="322" type="line"/>
      <point x="125" y="415" type="line" smooth="yes"/>
      <point x="160" y="450"/>
      <point x="258" y="450"/>
      <point x="293" y="415" type="qcurve" smooth="yes"/>
      <point x="355" y="353" type="line" smooth="yes"/>
      <point x="362" y="346"/>
      <point x="376" y="346"/>
      <point x="383" y="353" type="qcurve" smooth="yes"/>
      <point x="462" y="432" type="line"/>
      <point x="546" y="348" type="line"/>
      <point x="453" y="255" type="line" smooth="yes"/>
      <point x="418" y="220"/>
      <point x="320" y="220"/>
      <point x="285" y="255" type="qcurve" smooth="yes"/>
      <point x="223" y="317" type="line" smooth="yes"/>
      <point x="216" y="324"/>
      <point x="202" y="324"/>
      <point x="195" y="317" type="qcurve" smooth="yes"/>
      <point x="116" y="238" type="line"/>
    </contour>
  </outline>
</glyph>
<glyph name="exclamdown" format="2">
  <advance width="278"/>
  <unicode hex="00A1"/>
  <outline>
    <contour>
      <point x="64" y="384" type="line"/>
      <point x="64" y="528" type="line"/>
      <point x="214" y="528" type="line"/>
      <point x="214" y="384" type="line"/>
    </contour>
    <contour>
      <point x="67" y="-162" type="line"/>
      <point x="67" y="306" type="line"/>
      <point x="211" y="306" type="line"/>
      <point x="211" y="-162" type="line"/>
    </contour>
  </outline>
</glyph>
<glyph name="section" format="2">
  <advance width="544"/>
  <unicode hex="00A7"/>
  <outline>
    <contour>
      <point x="72" y="20" type="line"/>
      <point x="302" y="20" type="line" smooth="yes"/>
      <point x="336" y="20"/>
      <point x="336" y="58" type="qcurve" smooth="yes"/>
      <point x="336" y="97"/>
      <point x="306" y="102" type="qcurve" smooth="yes"/>
      <point x="198" y="120" type="line" smooth="yes"/>
      <point x="72" y="141"/>
      <point x="72" y="266" type="qcurve" smooth="yes"/>
      <point x="72" y="365" type="line"/>
      <point x="120" y="413" type="line"/>
      <point x="72" y="451"/>
      <point x="72" y="528" type="qcurve" smooth="yes"/>
      <point x="72" y="690"/>
      <point x="234" y="690" type="qcurve" smooth="yes"/>
      <point x="389" y="690" type="line"/>
      <point x="449" y="645" type="line"/>
      <point x="449" y="570" type="line"/>
      <point x="243" y="570" type="line" smooth="yes"/>
      <point x="209" y="570"/>
      <point x="209" y="532" type="qcurve" smooth="yes"/>
      <point x="209" y="493"/>
      <point x="239" y="488" type="qcurve" smooth="yes"/>
      <point x="347" y="470" type="line" smooth="yes"/>
      <point x="473" y="449"/>
      <point x="473" y="324" type="qcurve" smooth="yes"/>
      <point x="473" y="225" type="line"/>
      <point x="425" y="177" type="line"/>
      <point x="473" y="139"/>
      <point x="473" y="62" type="qcurve" smooth="yes"/>
      <point x="473" y="-100"/>
      <point x="311" y="-100" type="qcurve" smooth="yes"/>
      <point x="132" y="-100" type="line"/>
      <point x="72" y="-55" type="line"/>
    </contour>
    <contour>
      <point x="209" y="270" type="line" smooth="yes"/>
      <point x="209" y="231"/>
      <point x="239" y="226" type="qcurve" smooth="yes"/>
      <point x="336" y="210" type="line"/>
      <point x="336" y="320" type="line" smooth="yes"/>
      <point x="336" y="359"/>
      <point x="306" y="364" type="qcurve" smooth="yes"/>
      <point x="209" y="380" type="line"/>
    </contour>
  </outline>
</glyph>
<glyph name="copyright" format="2">
  <advance width="844"/>
  <unicode hex="00A9"/>
  <outline>
    <contour>
      <point x="72" y="116" type="qcurve" smooth="yes"/>
      <point x="72" y="574" type="line" smooth="yes"/>
      <point x="72" y="690"/>
      <point x="188" y="690" type="qcurve" smooth="yes"/>
      <point x="656" y="690" type="line" smooth="yes"/>
      <point x="772" y="690"/>
      <point x="772" y="574" type="qcurve" smooth="yes"/>
      <point x="772" y="116" type="line" smooth="yes"/>
      <point x="772" y="0"/>
      <point x="656" y="0" type="qcurve" smooth="yes"/>
      <point x="188" y="0" type="line" smooth="yes"/>
      <point x="72" y="0"/>
    </contour>
    <contour>
      <point x="174" y="103" type="line" smooth="yes"/>
      <point x="174" y="92"/>
      <point x="185" y="92" type="qcurve" smooth="yes"/>
      <point x="659" y="92" type="line" smooth="yes"/>
      <point x="670" y="92"/>
      <point x="670" y="103" type="qcurve" smooth="yes"/>
      <point x="670" y="587" type="line" smooth="yes"/>
      <point x="670" y="598"/>
      <point x="659" y="598" type="qcurve" smooth="yes"/>
      <point x="185" y="598" type="line" smooth="yes"/>
      <point x="174" y="598"/>
      <point x="174" y="587" type="qcurve" smooth="yes"/>
    </contour>
    <contour>
      <point x="257" y="280" type="qcurve" smooth="yes"/>
      <point x="257" y="410" type="line" smooth="yes"/>
      <point x="257" y="532"/>
      <point x="379" y="532" type="qcurve" smooth="yes"/>
      <point x="510" y="532" type="line"/>
      <point x="557" y="495" type="line"/>
      <point x="557" y="434" type="line"/>
      <point x="377" y="434" type="line" smooth="yes"/>
      <point x="365" y="434"/>
      <point x="365" y="422" type="qcurve" smooth="yes"/>
      <point x="365" y="268" type="line" smooth="yes"/>
      <point x="365" y="256"/>
      <point x="377" y="256" type="qcurve" smooth="yes"/>
      <point x="557" y="256" type="line"/>
      <point x="557" y="195" type="line"/>
      <point x="510" y="158" type="line"/>
      <point x="379" y="158" type="line" smooth="yes"/>
      <point x="257" y="158"/>
    </contour>
  </outline>
</glyph>
<glyph name="logicalnot" format="2">
  <advance width="578"/>
  <unicode hex="00AC"/>
  <outline>
    <contour>
      <point x="60" y="326" type="line"/>
      <point x="60" y="444" type="line"/>
      <point x="518" y="444" type="line"/>
      <point x="518" y="146" type="line"/>
      <point x="394" y="146" type="line"/>
      <point x="394" y="326" type="line"/>
    </contour>
  </outline>
</glyph>
<glyph name="degree" format="2">
  <advance width="412"/>
  <unicode hex="00B0"/>
  <outline>
    <contour>
      <point x="52" y="486" type="qcurve" smooth="yes"/>
      <point x="52" y="574" type="line" smooth="yes"/>
      <point x="52" y="690"/>
      <point x="168" y="690" type="qcurve" smooth="yes"/>
      <point x="244" y="690" type="line" smooth="yes"/>
      <point x="360" y="690"/>
      <point x="360" y="574" type="qcurve" smooth="yes"/>
      <point x="360" y="486" type="line" smooth="yes"/>
      <point x="360" y="370"/>
      <point x="244" y="370" type="qcurve" smooth="yes"/>
      <point x="168" y="370" type="line" smooth="yes"/>
      <point x="52" y="370"/>
    </contour>
    <contour>
      <point x="154" y="473" type="line" smooth="yes"/>
      <point x="154" y="462"/>
      <point x="165" y="462" type="qcurve" smooth="yes"/>
      <point x="247" y="462" type="line" smooth="yes"/>
      <point x="258" y="462"/>
      <point x="258" y="473" type="qcurve" smooth="yes"/>
      <point x="258" y="587" type="line" smooth="yes"/>
      <point x="258" y="598"/>
      <point x="247" y="598" type="qcurve" smooth="yes"/>
      <point x="165" y="598" type="line" smooth="yes"/>
      <point x="154" y="598"/>
      <point x="154" y="587" type="qcurve" smooth="yes"/>
    </contour>
  </outline>
</glyph>
<glyph name="mu" format="2">
  <advance width="594"/>
  <unicode hex="00B5"/>
  <outline>
    <contour>
      <point x="72" y="-200" type="line"/>
      <point x="72" y="528" type="line"/>
      <point x="210" y="528" type="line"/>
      <point x="210" y="120" type="line"/>
      <point x="356" y="120" type="line" smooth="yes"/>
      <point x="388" y="120"/>
      <point x="388" y="152" type="qcurve" smooth="yes"/>
      <point x="388" y="528" type="line"/>
      <point x="526" y="528" type="line"/>
      <point x="526" y="162" type="line" smooth="yes"/>
      <point x="526" y="0"/>
      <point x="364" y="0" type="qcurve" smooth="yes"/>
      <point x="210" y="0" type="line"/>
      <point x="210" y="-200" type="line"/>
    </contour>
  </outline>
</glyph>
<glyph name="paragraph" format="2">
  <advance width="652"/>
  <unicode hex="00B6"/>
  <outline>
    <contour>
      <point x="62" y="360" type="qcurve" smooth="yes"/>
      <point x="62" y="540" type="line" smooth="yes"/>
      <point x="62" y="690"/>
      <point x="212" y="690" type="qcurve" smooth="yes"/>
      <point x="352" y="690" type="line"/>
      <point x="352" y="210" type="line"/>
      <point x="212" y="210" type="line" smooth="yes"/>
      <point x="62" y="210"/>
    </contour>
    <contour>
      <point x="422" y="-170" type="line"/>
      <point x="422" y="690" type="line"/>
      <point x="560" y="690" type="line"/>
      <point x="560" y="-170" type="line"/>
    </contour>
  </outline>
</glyph>
<glyph name="uni00B9" format="2">
  <advance width="366"/>
  <unicode hex="00B9"/>
  <outline>
    <contour>
      <point x="52" y="274" type="line"/>
      <point x="52" y="372" type="line"/>
      <point x="140" y="372" type="line"/>
      <point x="140" y="592" type="line"/>
      <point x="67" y="592" type="line"/>
      <point x="67" y="653" type="line"/>
      <point x="114" y="690" type="line"/>
      <point x="248" y="690" type="line"/>
      <point x="248" y="372" type="line"/>
      <point x="326" y="372" type="line"/>
      <point x="326" y="274" type="line"/>
    </contour>
  </outline>
</glyph>
<glyph name="ordmasculine" format="2">
  <advance width="434"/>
  <unicode hex="00BA"/>
  <outline>
    <contour>
      <point x="44" y="418" type="qcurve" smooth="yes"/>
      <point x="44" y="568" type="line" smooth="yes"/>
      <point x="44" y="690"/>
      <point x="166" y="690" type="qcurve" smooth="yes"/>
      <point x="268" y="690" type="line" smooth="yes"/>
      <point x="390" y="690"/>
      <point x="390" y="568" type="qcurve" smooth="yes"/>
      <point x="390" y="418" type="line" smooth="yes"/>
      <point x="390" y="296"/>
      <point x="268" y="296" type="qcurve" smooth="yes"/>
      <point x="166" y="296" type="line" smooth="yes"/>
      <point x="44" y="296"/>
    </contour>
    <contour>
      <point x="152" y="406" type="line" smooth="yes"/>
      <point x="152" y="394"/>
      <point x="164" y="394" type="qcurve" smooth="yes"/>
      <point x="270" y="394" type="line" smooth="yes"/>
      <point x="282" y="394"/>
      <point x="282" y="406" type="qcurve" smooth="yes"/>
      <point x="282" y="580" type="line" smooth="yes"/>
      <point x="282" y="592"/>
      <point x="270" y="592" type="qcurve" smooth="yes"/>
      <point x="164" y="592" type="line" smooth="yes"/>
      <point x="152" y="592"/>
      <point x="152" y="580" type="qcurve" smooth="yes"/>
    </contour>
  </outline>
</glyph>
<glyph name="questiondown" format="2">
  <advance width="504"/>
  <unicode hex="00BF"/>
  <outline>
    <contour>
      <point x="50" y="6" type="qcurve" smooth="yes"/>
      <point x="50" y="90" type="line" smooth="yes"/>
      <point x="50" y="258"/>
      <point x="218" y="258" type="qcurve" smooth="yes"/>
      <point x="228" y="258" type="line"/>
      <point x="228" y="306" type="line"/>
      <point x="372" y="306" type="line"/>
      <point x="372" y="128" type="line"/>
      <point x="224" y="128" type="line" smooth="yes"/>
      <point x="194" y="128"/>
      <point x="194" y="98" type="qcurve" smooth="yes"/>
      <point x="194" y="-2" type="line" smooth="yes"/>
      <point x="194" y="-32"/>
      <point x="224" y="-32" type="qcurve" smooth="yes"/>
      <point x="484" y="-32" type="line"/>
      <point x="484" y="-110" type="line"/>
      <point x="417" y="-162" type="line"/>
      <point x="218" y="-162" type="line" smooth="yes"/>
      <point x="50" y="-162"/>
    </contour>
    <contour>
      <point x="225" y="384" type="line"/>
      <point x="225" y="528" type="line"/>
      <point x="375" y="528" type="line"/>
      <point x="375" y="384" type="line"/>
    </contour>
  </outline>
</glyph>
<glyph name="AE" format="2">
  <advance width="928"/>
  <unicode hex="00C6"/>
  <outline>
    <contour>
      <point x="18" y="27" type="line"/>
      <point x="223" y="690" type="line"/>
      <point x="878" y="690" type="line"/>
      <point x="878" y="560" type="line"/>
      <point x="562" y="560" type="line"/>
      <point x="562" y="420" type="line"/>
      <point x="848" y="420" type="line"/>
      <point x="848" y="290" type="line"/>
      <point x="562" y="290" type="line"/>
      <point x="562" y="130" type="line"/>
      <point x="878" y="130" type="line"/>
      <point x="878" y="0" type="line"/>
      <point x="418" y="0" type="line"/>
      <point x="418" y="140" type="line"/>
      <point x="198" y="140" type="line"/>
      <point x="156" y="0" type="line"/>
      <point x="36" y="0" type="line"/>
    </contour>
    <contour>
      <point x="237" y="270" type="line"/>
      <point x="418" y="270" type="line"/>
      <point x="418" y="560" type="line"/>
      <point x="325" y="560" type="line"/>
    </contour>
  </outline>
</glyph>
<glyph name="Eth" format="2">
  <advance width="704"/>
  <unicode hex="00D0"/>
  <outline>
    <contour>
      <point x="20" y="288" type="line"/>
      <point x="20" y="402" type="line"/>
      <point x="98" y="402" type="line"/>
      <point x="98" y="690" type="line"/>
      <point x="388" y="690" type="line" smooth="yes"/>
      <point x="642" y="690"/>
      <point x="642" y="436" type="qcurve" smooth="yes"/>
      <point x="642" y="254" type="line" smooth="yes"/>
      <point x="642" y="0"/>
      <point x="388" y="0" type="qcurve" smooth="yes"/>
      <point x="98" y="0" type="line"/>
      <point x="98" y="288" type="line"/>
    </contour>
    <contour>
      <point x="242" y="130" type="line"/>
      <point x="388" y="130" type="line" smooth="yes"/>
      <point x="498" y="130"/>
      <point x="498" y="240" type="qcurve" smooth="yes"/>
      <point x="498" y="450" type="line" smooth="yes"/>
      <point x="498" y="560"/>
      <point x="388" y="560" type="qcurve" smooth="yes"/>
      <point x="242" y="560" type="line"/>
      <point x="242" y="402" type="line"/>
      <point x="370" y="402" type="line"/>
      <point x="370" y="288" type="line"/>
      <point x="242" y="288" type="line"/>
    </contour>
  </outline>
</glyph>
<glyph name="multiply" format="2">
  <advance width="578"/>
  <unicode hex="00D7"/>
  <outline>
    <contour>
      <point x="67" y="197" type="line"/>
      <point x="205" y="335" type="line"/>
      <point x="67" y="473" type="line"/>
      <point x="151" y="557" type="line"/>
      <point x="289" y="419" type="line"/>
      <point x="427" y="557" type="line"/>
      <point x="511" y="473" type="line"/>
      <point x="373" y="335" type="line"/>
      <point x="511" y="197" type="line"/>
      <point x="427" y="113" type="line"/>
      <point x="289" y="251" type="line"/>
      <point x="151" y="113" type="line"/>
    </contour>
  </outline>
</glyph>
<glyph name="divide" format="2">
  <advance width="578"/>
  <unicode hex="00F7"/>
  <outline>
    <contour>
      <point x="60" y="276" type="line"/>
      <point x="60" y="394" type="line"/>
      <point x="518" y="394" type="line"/>
      <point x="518" y="276" type="line"/>
    </contour>
    <contour>
      <point x="229" y="85" type="line"/>
      <point x="229" y="205" type="line"/>
      <point x="349" y="205" type="line"/>
      <point x="349" y="85" type="line"/>
    </contour>
    <contour>
      <point x="229" y="465" type="line"/>
      <point x="229" y="585" type="line"/>
      <point x="349" y="585" type="line"/>
      <point x="349" y="465" type="line"/>
    </contour>
  </outline>
</glyph>
<glyph name="oslash" format="2">
  <advance width="592"/>
  <unicode hex="00F8"/>
  <outline>
    <contour>
      <point x="64" y="162" type="qcurve" smooth="yes"/>
      <point x="64" y="366" type="line" smooth="yes"/>
      <point x="64" y="528"/>
      <point x="226" y="528" type="qcurve" smooth="yes"/>
      <point x="366" y="528" type="line" smooth="yes"/>
      <point x="528" y="528"/>
      <point x="528" y="366" type="qcurve" smooth="yes"/>
      <point x="528" y="162" type="line" smooth="yes"/>
      <point x="528" y="0"/>
      <point x="366" y="0" type="qcurve" smooth="yes"/>
      <point x="226" y="0" type="line" smooth="yes"/>
      <point x="64" y="0"/>
    </contour>
    <contour>
      <point x="202" y="244" type="line"/>
      <point x="378" y="402" type="line"/>
      <point x="368" y="408"/>
      <point x="358" y="408" type="qcurve" smooth="yes"/>
      <point x="234" y="408" type="line" smooth="yes"/>
      <point x="202" y="408"/>
      <point x="202" y="376" type="qcurve" smooth="yes"/>
    </contour>
    <contour>
      <point x="214" y="126" type="line"/>
      <point x="224" y="120"/>
      <point x="234" y="120" type="qcurve" smooth="yes"/>
      <point x="358" y="120" type="line" smooth="yes"/>
      <point x="390" y="120"/>
      <point x="390" y="152" type="qcurve" smooth="yes"/>
      <point x="390" y="284" type="line"/>
    </contour>
  </outline>
</glyph>
<glyph name="lslash" format="2">
  <advance width="334"/>
  <unicode hex="0142"/>
  <outline>
    <contour>
      <point x="-6" y="348" type="line"/>
      <point x="86" y="401" type="line"/>
      <point x="86" y="740" type="line"/>
      <point x="224" y="740" type="line"/>
      <point x="224" y="480" type="line"/>
      <point x="287" y="517" type="line"/>
      <point x="339" y="426" type="line"/>
      <point x="224" y="360" type="line"/>
      <point x="224" y="178" type="line" smooth="yes"/>
      <point x="224" y="116"/>
      <point x="288" y="110" type="qcurve"/>
      <point x="288" y="-10" type="line"/>
      <point x="86" y="-10"/>
      <point x="86" y="192" type="qcurve" smooth="yes"/>
      <point x="86" y="280" type="line"/>
      <point x="46" y="257" type="line"/>
    </contour>
  </outline>
</glyph>
<glyph name="florin" format="2">
  <advance width="578"/>
  <unicode hex="0192"/>
  <outline>
    <contour>
      <point x="40" y="-42" type="line"/>
      <point x="150" y="-42" type="line" smooth="yes"/>
      <point x="182" y="-42"/>
      <point x="182" y="-10" type="qcurve" smooth="yes"/>
      <point x="182" y="578" type="line" smooth="yes"/>
      <point x="182" y="740"/>
      <point x="344" y="740" type="qcurve" smooth="yes"/>
      <point x="442" y="740" type="line"/>
      <point x="502" y="695" type="line"/>
      <point x="502" y="620" type="line"/>
      <point x="352" y="620" type="line" smooth="yes"/>
      <point x="320" y="620"/>
      <point x="320" y="588" type="qcurve" smooth="yes"/>
      <point x="320" y="528" type="line"/>
      <point x="492" y="528" type="line"/>
      <point x="492" y="408" type="line"/>
      <point x="320" y="408" type="line"/>
      <point x="320" y="0" type="line" smooth="yes"/>
      <point x="320" y="-162"/>
      <point x="158" y="-162" type="qcurve" smooth="yes"/>
      <point x="100" y="-162" type="line"/>
      <point x="40" y="-117" type="line"/>
    </contour>
  </outline>
</glyph>
<glyph name="uni0237" format="2">
  <advance width="282"/>
  <unicode hex="0237"/>
  <outline>
    <contour>
      <point x="-10" y="-93" type="line"/>
      <point x="72" y="-87"/>
      <point x="72" y="-7" type="qcurve" smooth="yes"/>
      <point x="72" y="528" type="line"/>
      <point x="210" y="528" type="line"/>
      <point x="210" y="10" type="line" smooth="yes"/>
      <point x="210" y="-210"/>
      <point x="-10" y="-210" type="qcurve"/>
    </contour>
  </outline>
</glyph>
<glyph name="uni0302" format="2">
  <advance width="0"/>
  <unicode hex="0302"/>
  <outline>
    <contour>
      <point x="-447" y="642" type="line"/>
      <point x="-290" y="796" type="line"/>
      <point x="-133" y="642" type="line"/>
      <point x="-192" y="580" type="line"/>
      <point x="-290" y="673" type="line"/>
      <point x="-388" y="580" type="line"/>
    </contour>
  </outline>
</glyph>
<glyph name="uni0304" format="2">
  <advance width="0"/>
  <unicode hex="0304"/>
  <outline>
    <contour>
      <point x="-436" y="618" type="line"/>
      <point x="-436" y="714" type="line"/>
      <point x="-144" y="714" type="line"/>
      <point x="-144" y="618" type="line"/>
    </contour>
  </outline>
</glyph>
<glyph name="uni0307" format="2">
  <advance width="0"/>
  <unicode hex="0307"/>
  <outline>
    <contour>
      <point x="-361" y="614" type="line"/>
      <point x="-361" y="748" type="line"/>
      <point x="-219" y="748" type="line"/>
      <point x="-219" y="614" type="line"/>
    </contour>
  </outline>
</glyph>
<glyph name="uni030A" format="2">
  <advance width="0"/>
  <unicode hex="030A"/>
  <outline>
    <contour>
      <point x="-406" y="649" type="qcurve" smooth="yes"/>
      <point x="-406" y="707" type="line" smooth="yes"/>
      <point x="-406" y="787"/>
      <point x="-326" y="787" type="qcurve" smooth="yes"/>
      <point x="-254" y="787" type="line" smooth="yes"/>
      <point x="-174" y="787"/>
      <point x="-174" y="707" type="qcurve" smooth="yes"/>
      <point x="-174" y="649" type="line" smooth="yes"/>
      <point x="-174" y="569"/>
      <point x="-254" y="569" type="qcurve" smooth="yes"/>
      <point x="-326" y="569" type="line" smooth="yes"/>
      <point x="-406" y="569"/>
    </contour>
    <contour>
      <point x="-328" y="645" type="line" smooth="yes"/>
      <point x="-328" y="637"/>
      <point x="-320" y="637" type="qcurve" smooth="yes"/>
      <point x="-260" y="637" type="line" smooth="yes"/>
      <point x="-252" y="637"/>
      <point x="-252" y="645" type="qcurve" smooth="yes"/>
      <point x="-252" y="711" type="line" smooth="yes"/>
      <point x="-252" y="719"/>
      <point x="-260" y="719" type="qcurve" smooth="yes"/>
      <point x="-320" y="719" type="line" smooth="yes"/>
      <point x="-328" y="719"/>
      <point x="-328" y="711" type="qcurve" smooth="yes"/>
    </contour>
  </outline>
</glyph>
<glyph name="uni030B" format="2">
  <advance width="0"/>
  <unicode hex="030B"/>
  <outline>
    <contour>
      <point x="-454" y="631" type="line"/>
      <point x="-338" y="796" type="line"/>
      <point x="-257" y="734" type="line"/>
      <point x="-384" y="576" type="line"/>
    </contour>
    <contour>
      <point x="-269" y="631" type="line"/>
      <point x="-153" y="796" type="line"/>
      <point x="-72" y="734" type="line"/>
      <point x="-199" y="576" type="line"/>
    </contour>
  </outline>
</glyph>
<glyph name="uni0328" format="2">
  <advance width="0"/>
  <unicode hex="0328"/>
  <outline>
    <contour>
      <point x="-386" y="-26" type="line" smooth="yes"/>
      <point x="-386" y="96"/>
      <point x="-264" y="96" type="qcurve" smooth="yes"/>
      <point x="-244" y="96" type="line"/>
      <point x="-244" y="0" type="line"/>
      <point x="-268" y="0" type="line" smooth="yes"/>
      <point x="-280" y="0"/>
      <point x="-280" y="-12" type="qcurve" smooth="yes"/>
      <point x="-280" y="-78" type="line" smooth="yes"/>
      <point x="-280" y="-90"/>
      <point x="-268" y="-90" type="qcurve" smooth="yes"/>
      <point x="-170" y="-90" type="line"/>
      <point x="-170" y="-149" type="line"/>
      <point x="-217" y="-186" type="line"/>
      <point x="-264" y="-186" type="line" smooth="yes"/>
      <point x="-386" y="-186"/>
      <point x="-386" y="-64" type="qcurve" smooth="yes"/>
    </contour>
  </outline>
</glyph>
<glyph name="pi" format="2">
  <advance width="598"/>
  <unicode hex="03C0"/>
  <outline>
    <contour>
      <point x="72" y="0" type="line"/>
      <point x="72" y="528" type="line"/>
      <point x="526" y="528" type="line"/>
      <point x="526" y="0" type="line"/>
      <point x="388" y="0" type="line"/>
      <point x="388" y="408" type="line"/>
      <point x="210" y="408" type="line"/>
      <point x="210" y="0" type="line"/>
    </contour>
  </outline>
</glyph>
<glyph name="uni1E9E" format="2">
  <advance width="702"/>
  <unicode hex="1E9E"/>
  <outline>
    <contour>
      <point x="76" y="0" type="line"/>
      <point x="76" y="522" type="line" smooth="yes"/>
      <point x="76" y="690"/>
      <point x="244" y="690" type="qcurve" smooth="yes"/>
      <point x="580" y="690" type="line"/>
      <point x="580" y="578" type="line"/>
      <point x="467" y="420" type="line"/>
      <point x="482" y="420" type="line" smooth="yes"/>
      <point x="650" y="420"/>
      <point x="650" y="252" type="qcurve" smooth="yes"/>
      <point x="650" y="168" type="line" smooth="yes"/>
      <point x="650" y="0"/>
      <point x="482" y="0" type="qcurve" smooth="yes"/>
      <point x="355" y="0" type="line"/>
      <point x="288" y="52" type="line"/>
      <point x="288" y="130" type="line"/>
      <point x="476" y="130" type="line" smooth="yes"/>
      <point x="506" y="130"/>
      <point x="506" y="160" type="qcurve" smooth="yes"/>
      <point x="506" y="260" type="line" smooth="yes"/>
      <point x="506" y="290"/>
      <point x="476" y="290" type="qcurve" smooth="yes"/>
      <point x="298" y="290" type="line"/>
      <point x="298" y="402" type="line"/>
      <point x="411" y="560" type="line"/>
      <point x="250" y="560" type="line" smooth="yes"/>
      <point x="220" y="560"/>
      <point x="220" y="530" type="qcurve" smooth="yes"/>
      <point x="220" y="0" type="line"/>
    </contour>
  </outline>
</glyph>
<glyph name="daggerdbl" format="2">
  <advance width="498"/>
  <unicode hex="2021"/>
  <outline>
    <contour>
      <point x="50" y="76" type="line"/>
      <point x="50" y="194" type="line"/>
      <point x="187" y="194" type="line"/>
      <point x="187" y="396" type="line"/>
      <point x="50" y="396" type="line"/>
      <point x="50" y="514" type="line"/>
      <point x="187" y="514" type="line"/>
      <point x="187" y="690" type="line"/>
      <point x="311" y="690" type="line"/>
      <point x="311" y="514" type="line"/>
      <point x="448" y="514" type="line"/>
      <point x="448" y="396" type="line"/>
      <point x="311" y="396" type="line"/>
      <point x="311" y="194" type="line"/>
      <point x="448" y="194" type="line"/>
      <point x="448" y="76" type="line"/>
      <point x="311" y="76" type="line"/>
      <point x="311" y="-100" type="line"/>
      <point x="187" y="-100" type="line"/>
      <point x="187" y="76" type="line"/>
    </contour>
  </outline>
</glyph>
<glyph name="guilsinglleft" format="2">
  <advance width="345"/>
  <unicode hex="2039"/>
  <outline>
    <contour>
      <point x="30" y="315" type="line"/>
      <point x="220" y="554" type="line"/>
      <point x="305" y="484" type="line"/>
      <point x="175" y="315" type="line"/>
      <point x="305" y="146" type="line"/>
      <point x="220" y="76" type="line"/>
    </contour>
  </outline>
</glyph>
<glyph name="guilsinglright" format="2">
  <advance width="345"/>
  <unicode hex="203A"/>
  <outline>
    <contour>
      <point x="40" y="146" type="line"/>
      <point x="170" y="315" type="line"/>
      <point x="40" y="484" type="line"/>
      <point x="125" y="554" type="line"/>
      <point x="315" y="315" type="line"/>
      <point x="125" y="76" type="line"/>
    </contour>
  </outline>
</glyph>
<glyph name="Euro" format="2">
  <advance width="578"/>
  <unicode hex="20AC"/>
  <outline>
    <contour>
      <point x="24" y="223" type="line"/>
      <point x="24" y="315" type="line"/>
      <point x="92" y="315" type="line"/>
      <point x="92" y="375" type="line"/>
      <point x="24" y="375" type="line"/>
      <point x="24" y="467" type="line"/>
      <point x="92" y="467" type="line"/>
      <point x="92" y="522" type="line" smooth="yes"/>
      <point x="92" y="690"/>
      <point x="260" y="690" type="qcurve" smooth="yes"/>
      <point x="477" y="690" type="line"/>
      <point x="544" y="638" type="line"/>
      <point x="544" y="560" type="line"/>
      <point x="266" y="560" type="line" smooth="yes"/>
      <point x="236" y="560"/>
      <point x="236" y="530" type="qcurve" smooth="yes"/>
      <point x="236" y="467" type="line"/>
      <point x="470" y="467" type="line"/>
      <point x="470" y="375" type="line"/>
      <point x="236" y="375" type="line"/>
      <point x="236" y="315" type="line"/>
      <point x="426" y="315" type="line"/>
      <point x="426" y="223" type="line"/>
      <point x="236" y="223" type="line"/>
      <point x="236" y="160" type="line" smooth="yes"/>
      <point x="236" y="130"/>
      <point x="266" y="130" type="qcurve" smooth="yes"/>
      <point x="544" y="130" type="line"/>
      <point x="544" y="52" type="line"/>
      <point x="477" y="0" type="line"/>
      <point x="260" y="0" type="line" smooth="yes"/>
      <point x="92" y="0"/>
      <point x="92" y="168" type="qcurve" smooth="yes"/>
      <point x="92" y="223" type="line"/>
    </contour>
  </outline>
</glyph>
<glyph name="uni20BA" format="2">
  <advance width="578"/>
  <unicode hex="20BA"/>
  <outline>
    <contour>
      <point x="22" y="311" type="line"/>
      <point x="112" y="347" type="line"/>
      <point x="112" y="404" type="line"/>
      <point x="56" y="382" type="line"/>
      <point x="22" y="467" type="line"/>
      <point x="112" y="503" type="line"/>
      <point x="112" y="690" type="line"/>
      <point x="256" y="690" type="line"/>
      <point x="256" y="561" type="line"/>
      <point x="421" y="627" type="line"/>
      <point x="455" y="542" type="line"/>
      <point x="256" y="462" type="line"/>
      <point x="256" y="405" type="line"/>
      <point x="421" y="471" type="line"/>
      <point x="455" y="386" type="line"/>
      <point x="256" y="306" type="line"/>
      <point x="256" y="130" type="line"/>
      <point x="262" y="130" type="line" smooth="yes"/>
      <point x="398" y="130"/>
      <point x="398" y="264" type="qcurve" smooth="yes"/>
      <point x="398" y="300" type="line"/>
      <point x="536" y="300" type="line"/>
      <point x="536" y="282" type="line" smooth="yes"/>
      <point x="536" y="0"/>
      <point x="254" y="0" type="qcurve" smooth="yes"/>
      <point x="112" y="0" type="line"/>
      <point x="112" y="248" type="line"/>
      <point x="56" y="226" type="line"/>
    </contour>
  </outline>
</glyph>
<glyph name="trademark" format="2">
  <advance width="794"/>
  <unicode hex="2122"/>
  <outline>
    <contour>
      <point x="20" y="598" type="line"/>
      <point x="20" y="690" type="line"/>
      <point x="312" y="690" type="line"/>
      <point x="312" y="598" type="line"/>
      <point x="217" y="598" type="line"/>
      <point x="217" y="334" type="line"/>
      <point x="115" y="334" type="line"/>
      <point x="115" y="598" type="line"/>
    </contour>
    <contour>
      <point x="344" y="334" type="line"/>
      <point x="344" y="690" type="line"/>
      <point x="460" y="690" type="line"/>
      <point x="543" y="512" type="line"/>
      <point x="626" y="690" type="line"/>
      <point x="742" y="690" type="line"/>
      <point x="742" y="334" type="line"/>
      <point x="640" y="334" type="line"/>
      <point x="640" y="499" type="line"/>
      <point x="582" y="375" type="line"/>
      <point x="504" y="375" type="line"/>
      <point x="446" y="499" type="line"/>
      <point x="446" y="334" type="line"/>
    </contour>
  </outline>
</glyph>
<glyph name="Omega" format="2">
  <advance width="708"/>
  <unicode hex="2126"/>
  <outline>
    <contour>
      <point x="52" y="0" type="line"/>
      <point x="52" y="130" type="line"/>
      <point x="129" y="130" type="line"/>
      <point x="108" y="158" type="line" smooth="yes"/>
      <point x="72" y="206"/>
      <point x="72" y="268" type="qcurve" smooth="yes"/>
      <point x="72" y="522" type="line" smooth="yes"/>
      <point x="72" y="690"/>
      <point x="240" y="690" type="qcurve" smooth="yes"/>
      <point x="468" y="690" type="line" smooth="yes"/>
      <point x="636" y="690"/>
      <point x="636" y="522" type="qcurve" smooth="yes"/>
      <point x="636" y="268" type="line" smooth="yes"/>
      <point x="636" y="206"/>
      <point x="600" y="158" type="qcurve" smooth="yes"/>
      <point x="579" y="130" type="line"/>
      <point x="656" y="130" type="line"/>
      <point x="656" y="0" type="line"/>
      <point x="402" y="0" type="line"/>
      <point x="402" y="110" type="line"/>
      <point x="477" y="210" type="line" smooth="yes"/>
      <point x="492" y="230"/>
      <point x="492" y="258" type="qcurve" smooth="yes"/>
      <point x="492" y="530" type="line" smooth="yes"/>
      <point x="492" y="560"/>
      <point x="462" y="560" type="qcurve" smooth="yes"/>
      <point x="246" y="560" type="line" smooth="yes"/>
      <point x="216" y="560"/>
      <point x="216" y="530" type="qcurve" smooth="yes"/>
      <point x="216" y="258" type="line" smooth="yes"/>
      <point x="216" y="230"/>
      <point x="231" y="210" type="qcurve" smooth="yes"/>
      <point x="306" y="110" type="line"/>
      <point x="306" y="0" type="line"/>
    </contour>
  </outline>
</glyph>
<glyph name="partialdiff" format="2">
  <advance width="586"/>
  <unicode hex="2202"/>
  <outline>
    <contour>
      <point x="64" y="162" type="qcurve" smooth="yes"/>
      <point x="64" y="318" type="line" smooth="yes"/>
      <point x="64" y="480"/>
      <point x="226" y="480" type="qcurve" smooth="yes"/>
      <point x="380" y="480" type="line"/>
      <point x="380" y="508" type="line" smooth="yes"/>
      <point x="380" y="620"/>
      <point x="268" y="620" type="qcurve" smooth="yes"/>
      <point x="108" y="620" type="line"/>
      <point x="108" y="695" type="line"/>
      <point x="168" y="740" type="line"/>
      <point x="264" y="740" type="line" smooth="yes"/>
      <point x="518" y="740"/>
      <point x="518" y="486" type="qcurve" smooth="yes"/>
      <point x="518" y="162" type="line" smooth="yes"/>
      <point x="518" y="0"/>
      <point x="356" y="0" type="qcurve" smooth="yes"/>
      <point x="226" y="0" type="line" smooth="yes"/>
      <point x="64" y="0"/>
    </contour>
    <contour>
      <point x="202" y="152" type="line" smooth="yes"/>
      <point x="202" y="120"/>
      <point x="234" y="120" type="qcurve" smooth="yes"/>
      <point x="348" y="120" type="line" smooth="yes"/>
      <point x="380" y="120"/>
      <point x="380" y="152" type="qcurve" smooth="yes"/>
      <point x="380" y="360" type="line"/>
      <point x="234" y="360" type="line" smooth="yes"/>
      <point x="202" y="360"/>
      <point x="202" y="328" type="qcurve" smooth="yes"/>
    </contour>
  </outline>
</glyph>
<glyph name="Delta" format="2">
  <advance width="676"/>
  <unicode hex="2206"/>
  <outline>
    <contour>
      <point x="18" y="27" type="line"/>
      <point x="223" y="690" type="line"/>
      <point x="453" y="690" type="line"/>
      <point x="658" y="27" type="line"/>
      <point x="640" y="0" type="line"/>
      <point x="36" y="0" type="line"/>
    </contour>
    <contour>
      <point x="194" y="130" type="line"/>
      <point x="482" y="130" type="line"/>
      <point x="351" y="560" type="line"/>
      <point x="325" y="560" type="line"/>
    </contour>
  </outline>
</glyph>
<glyph name="summation" format="2">
  <advance width="600"/>
  <unicode hex="2211"/>
  <outline>
    <contour>
      <point x="50" y="12" type="line"/>
      <point x="249" y="295" type="line"/>
      <point x="50" y="578" type="line"/>
      <point x="50" y="690" type="line"/>
      <point x="550" y="690" type="line"/>
      <point x="550" y="560" type="line"/>
      <point x="225" y="560" type="line"/>
      <point x="411" y="295" type="line"/>
      <point x="225" y="30" type="line"/>
      <point x="550" y="30" type="line"/>
      <point x="550" y="-100" type="line"/>
      <point x="50" y="-100" type="line"/>
    </contour>
  </outline>
</glyph>
<glyph name="lessequal" format="2">
  <advance width="578"/>
  <unicode hex="2264"/>
  <outline>
    <contour>
      <point x="60" y="0" type="line"/>
      <point x="60" y="118" type="line"/>
      <point x="518" y="118" type="line"/>
      <point x="518" y="0" type="line"/>
    </contour>
    <contour>
      <point x="64" y="344" type="line"/>
      <point x="64" y="474" type="line"/>
      <point x="474" y="670" type="line"/>
      <point x="524" y="565" type="line"/>
      <point x="191" y="409" type="line"/>
      <point x="524" y="253" type="line"/>
      <point x="474" y="148" type="line"/>
    </contour>
  </outline>
</glyph>
<glyph name=".notdef" format="2">
  <advance width="594"/>
  <outline>
    <contour>
      <point x="82" y="0" type="line"/>
      <point x="82" y="740" type="line"/>
      <point x="512" y="740" type="line"/>
      <point x="512" y="0" type="line"/>
    </contour>
    <contour>
      <point x="162" y="80" type="line"/>
      <point x="432" y="80" type="line"/>
      <point x="432" y="660" type="line"/>
      <point x="162" y="660" type="line"/>
    </contour>
  </outline>
</glyph>
<glyph name="uni0303.cap" format="2">
  <advance width="0"/>
  <outline>
    <contour>
      <point x="-507" y="804" type="line"/>
      <point x="-438" y="873" type="line" smooth="yes"/>
      <point x="-419" y="892"/>
      <point x="-349" y="892"/>
      <point x="-330" y="873" type="qcurve" smooth="yes"/>
      <point x="-282" y="825" type="line" smooth="yes"/>
      <point x="-279" y="822"/>
      <point x="-273" y="822"/>
      <point x="-270" y="825" type="qcurve" smooth="yes"/>
      <point x="-212" y="883" type="line"/>
      <point x="-153" y="824" type="line"/>
      <point x="-222" y="755" type="line" smooth="yes"/>
      <point x="-241" y="736"/>
      <point x="-311" y="736"/>
      <point x="-330" y="755" type="qcurve" smooth="yes"/>
      <point x="-378" y="803" type="line" smooth="yes"/>
      <point x="-381" y="806"/>
      <point x="-387" y="806"/>
      <point x="-390" y="803" type="qcurve" smooth="yes"/>
      <point x="-448" y="745" type="line"/>
    </contour>
  </outline>
</glyph>
<glyph name="uni0308.cap" format="2">
  <advance width="0"/>
  <outline>
    <contour>
      <point x="-490" y="756" type="line"/>
      <point x="-490" y="880" type="line"/>
      <point x="-370" y="880" type="line"/>
      <point x="-370" y="756" type="line"/>
    </contour>
    <contour>
      <point x="-290" y="756" type="line"/>
      <point x="-290" y="880" type="line"/>
      <point x="-170" y="880" type="line"/>
      <point x="-170" y="756" type="line"/>
    </contour>
  </outline>
</glyph>
<glyph name="uni0326.alt" format="2">
  <advance width="0"/>
  <outline>
    <contour>
      <point x="-50" y="623" type="line"/>
      <point x="5" y="757" type="line"/>
      <point x="98" y="731" type="line"/>
      <point x="68" y="602" type="line"/>
      <point x="-36" y="602" type="line"/>
    </contour>
  </outline>
</glyph>
<glyph name="zero.zero" format="2">
  <advance width="578"/>
  <outline>
    <contour>
      <point x="52" y="168" type="qcurve" smooth="yes"/>
      <point x="52" y="522" type="line" smooth="yes"/>
      <point x="52" y="690"/>
      <point x="220" y="690" type="qcurve" smooth="yes"/>
      <point x="358" y="690" type="line" smooth="yes"/>
      <point x="526" y="690"/>
      <point x="526" y="522" type="qcurve" smooth="yes"/>
      <point x="526" y="168" type="line" smooth="yes"/>
      <point x="526" y="0"/>
      <point x="358" y="0" type="qcurve" smooth="yes"/>
      <point x="220" y="0" type="line" smooth="yes"/>
      <point x="52" y="0"/>
    </contour>
    <contour>
      <point x="196" y="160" type="line" smooth="yes"/>
      <point x="196" y="130"/>
      <point x="226" y="130" type="qcurve" smooth="yes"/>
      <point x="352" y="130" type="line" smooth="yes"/>
      <point x="382" y="130"/>
      <point x="382" y="160" type="qcurve" smooth="yes"/>
      <point x="382" y="530" type="line" smooth="yes"/>
      <point x="382" y="560"/>
      <point x="352" y="560" type="qcurve" smooth="yes"/>
      <point x="226" y="560" type="line" smooth="yes"/>
      <point x="196" y="560"/>
      <point x="196" y="530" type="qcurve" smooth="yes"/>
    </contour>
    <contour>
      <point x="237" y="277" type="line"/>
      <point x="237" y="413" type="line"/>
      <point x="341" y="413" type="line"/>
      <point x="341" y="277" type="line"/>
    </contour>
  </outline>
</glyph>
